<?xml version="1.0" encoding="utf-8"?>
<!-- Generator: Adobe Illustrator 16.0.0, SVG Export Plug-In . SVG Version: 6.00 Build 0)  -->
<!DOCTYPE svg PUBLIC "-//W3C//DTD SVG 1.1//EN" "http://www.w3.org/Graphics/SVG/1.1/DTD/svg11.dtd">
<svg version="1.1" id="Layer_1" xmlns="http://www.w3.org/2000/svg" xmlns:xlink="http://www.w3.org/1999/xlink" x="0px" y="0px"
	 width="540.492px" height="537px" viewBox="0 0 540.492 537" enable-background="new 0 0 540.492 537" xml:space="preserve">
<g>
	<path fill="#FBE5CE" d="M417.593,207.697c0.504,115.427-92.66,209.407-208.085,209.911
		c-57.714,0.252-110.065-22.913-148.052-60.568C23.47,319.384-0.151,267.237-0.403,209.523
		C-0.907,94.097,92.256,0.116,207.682-0.388S417.089,92.271,417.593,207.697z"/>
	<path fill="#D3C4B6" d="M423.684,214.192c0.508,116.565-92.385,211.468-207.483,211.971
		c-57.552,0.252-109.756-23.146-147.635-61.174C30.686,326.96,7.128,274.298,6.874,216.016C6.364,99.45,99.258,4.548,214.355,4.046
		C329.454,3.544,423.173,97.629,423.684,214.192z"/>
	<path opacity="0.2" fill="#3A3A3A" d="M433.261,208.61l30.928-39.152c0,0,9.228-8.424-1.419-18.003S359.025,58.107,359.025,58.107
		L105.941,306.901l129.042,118.321c-2.496,0.29-7.377,0.615-9.342,0.7c-2.346,0.102-5.587,0.169-8.578,0.242
		c-2.717,0.066-5.536-0.014-7.938-0.09c-2.68-0.086-5.035-0.208-6.68-0.309c-9.54-0.581-16.447-1.61-22.708-2.597
		c-2.646-0.448-4.223-0.715-5.417-0.974c-2.274-0.492-2.273-0.492-3.734-0.825c-0.654-0.148-4.241-0.936-6.558-1.609
		c-1.562-0.455-4.472-1.031-6.332-1.585c-2.909-0.866-11.164-3.667-11.164-3.667s-3.897-1.429-7.417-2.835
		c-2.156-0.861-4.062-1.673-5.249-2.167c-3.737-1.556-10.756-4.899-11.583-5.336c-0.201-0.105-0.002,0-0.201-0.105
		c-3.46-1.839-6.913-3.68-9.882-5.395c-4.44-2.564-8.03-4.889-10.417-6.5c-4.292-2.898-7.356-4.938-10.417-7.248
		c-2.119-1.601-4.257-3.201-7.009-5.521c-0.178-0.15-1.432-1.146-2.078-1.688c-0.668-0.56-0.731-0.668-1.016-0.906
		c-1.153-0.966-1.924-1.617-2.116-1.788c-1.533-1.359-3.392-2.996-4.774-4.321c-2.472-2.368-4.276-3.948-4.276-3.948L223.534,537h11
		h7h11h8h96l183.061-0.695l0.492-245.256L433.261,208.61z M433.907,154.365l-28.279,32.709c-4.61,2.724-8.649,1.136-10.357-0.413
		l-58.412-59.764c-1.71-1.552-1.923-4.052-0.476-5.59l28.861-30.6c1.447-1.539,4.014-1.527,5.722,0.022l63.404,54.794
		C436.079,147.073,437.851,151.656,433.907,154.365z"/>
	<path fill="#FFFFFF" d="M359.012,56.397l-17.433-15.766c-0.837-0.757-2.283-0.522-3.23,0.525l-46.247,51.135
		c-23.383-16.79-52.054-26.681-83.036-26.681c-78.716,0-142.529,63.813-142.529,142.529c0,47.372,23.111,89.347,58.674,115.264
		c23.53,17.147,52.512,27.266,83.855,27.266c78.716,0,142.529-63.813,142.529-142.529c0-37.799-14.721-72.156-38.733-97.667
		l45.953-50.809C359.761,58.617,359.849,57.154,359.012,56.397z"/>
	<path fill="#FFF4E8" d="M362.65,59.175l-19.302-16.944l-47.941,52.766C271.908,78.24,243.095,68.37,211.958,68.37
		c-79.106,0-143.237,63.683-143.237,142.236c0,47.275,23.226,89.163,58.965,115.029c23.648,17.112,52.774,27.209,84.272,27.209
		c79.105,0,143.236-63.684,143.236-142.238c0-37.721-14.794-72.008-38.925-97.465l46.181-50.705
		C363.401,61.391,363.49,59.93,362.65,59.175z"/>
	<path fill="#FFFFFF" d="M328.025,213.441c0,62.381-50.632,112.952-113.089,112.952c-62.456,0-113.088-50.571-113.088-112.952
		c0-62.382,50.632-112.953,113.088-112.953c58.287,0,106.277,44.046,112.424,100.63
		C327.799,205.166,328.025,209.277,328.025,213.441z"/>
	<path fill="#D9A57A" d="M325.595,208.14c0,64.356-52.173,116.529-116.529,116.529S92.536,272.496,92.536,208.14
		S144.709,91.61,209.065,91.61c60.061,0,109.51,45.44,115.844,103.817C325.362,199.603,325.595,203.844,325.595,208.14z"/>
	<path fill="#5E3B25" stroke="#5E3B25" stroke-width="0.5" stroke-miterlimit="10" d="M300.415,215.276
		c-2.406-11.244-5.792-26.05-11.017-37.802c-13.234-29.77-33.101-45.159-64.192-42.54c-9.268,0.78-18.749-4.797-27.739-1.965
		c-8.293,2.613-14.882,8.645-20.629,15.192c-4.911,5.598-9.619,11.031-16.638,13.718c-6.969,2.666-15.058,3.232-20.067,9.552
		c-12.61,15.907-8.062,15.942-11.018,23.747c-19.894,52.515,26.915,120.791,82.905,111.831
		C268.745,297.932,310.046,260.297,300.415,215.276z"/>
	<path fill="#5E3B25" d="M122.595,232.61"/>
	<circle fill="#5E3B25" stroke="#5E3B25" stroke-width="0.5" stroke-miterlimit="10" cx="135.928" cy="151.276" r="6.333"/>
	<circle fill="#5E3B25" stroke="#5E3B25" stroke-width="0.5" stroke-miterlimit="10" cx="155.819" cy="134.386" r="2.225"/>
	<circle fill="#5E3B25" stroke="#5E3B25" stroke-width="0.5" stroke-miterlimit="10" cx="172.819" cy="126.585" r="2.225"/>
	
		<ellipse fill="#5E3B25" stroke="#5E3B25" stroke-width="0.5" stroke-miterlimit="10" cx="154.707" cy="117.485" rx="1.112" ry="1.125"/>
	<circle fill="#5E3B25" stroke="#5E3B25" stroke-width="0.5" stroke-miterlimit="10" cx="193.595" cy="111.233" r="1"/>
	<circle fill="#5E3B25" stroke="#5E3B25" stroke-width="0.5" stroke-miterlimit="10" cx="177.531" cy="108.797" r="1.437"/>
	<circle fill="#5E3B25" stroke="#5E3B25" stroke-width="0.5" stroke-miterlimit="10" cx="203.845" cy="124.86" r="3.5"/>
	<circle fill="#5E3B25" stroke="#5E3B25" stroke-width="0.5" stroke-miterlimit="10" cx="208.489" cy="110.254" r="4.644"/>
	<circle fill="#5E3B25" stroke="#5E3B25" stroke-width="0.5" stroke-miterlimit="10" cx="187.845" cy="120.11" r="1.5"/>
	<circle fill="#5E3B25" stroke="#5E3B25" stroke-width="0.5" stroke-miterlimit="10" cx="186.47" cy="104.235" r="2.875"/>
	<circle fill="#5E3B25" stroke="#5E3B25" stroke-width="0.5" stroke-miterlimit="10" cx="225.095" cy="111.11" r="3.75"/>
	<circle fill="#5E3B25" stroke="#5E3B25" stroke-width="0.5" stroke-miterlimit="10" cx="161.444" cy="146.511" r="3.4"/>
	<circle fill="#5E3B25" stroke="#5E3B25" stroke-width="0.5" stroke-miterlimit="10" cx="134.887" cy="134.402" r="1.042"/>
	<circle fill="#5E3B25" stroke="#5E3B25" stroke-width="0.5" stroke-miterlimit="10" cx="141.97" cy="123.735" r="2.125"/>
	<circle fill="#5E3B25" stroke="#5E3B25" stroke-width="0.5" stroke-miterlimit="10" cx="173.345" cy="117.648" r="2.75"/>
	<circle fill="#5E3B25" stroke="#5E3B25" stroke-width="0.5" stroke-miterlimit="10" cx="184.345" cy="134.161" r="2"/>
	<circle fill="#5E3B25" stroke="#5E3B25" stroke-width="0.5" stroke-miterlimit="10" cx="199.97" cy="100.985" r="1.875"/>
	<circle fill="#5E3B25" stroke="#5E3B25" stroke-width="0.5" stroke-miterlimit="10" cx="224.095" cy="123.36" r="4.75"/>
	<circle fill="#5E3B25" stroke="#5E3B25" stroke-width="0.5" stroke-miterlimit="10" cx="161.345" cy="107.86" r="2.25"/>
	<circle fill="#5E3B25" stroke="#5E3B25" stroke-width="0.5" stroke-miterlimit="10" cx="248.97" cy="112.485" r="6.125"/>
	<circle fill="#5E3B25" stroke="#5E3B25" stroke-width="0.5" stroke-miterlimit="10" cx="237.72" cy="116.273" r="1.375"/>
	<circle fill="#5E3B25" stroke="#5E3B25" stroke-width="0.5" stroke-miterlimit="10" cx="235.282" cy="101.548" r="2.438"/>
	<circle fill="#5E3B25" stroke="#5E3B25" stroke-width="0.5" stroke-miterlimit="10" cx="215.095" cy="101.985" r="1"/>
	<circle fill="#5E3B25" stroke="#5E3B25" stroke-width="0.5" stroke-miterlimit="10" cx="167.095" cy="141.11" r="2.25"/>
	<circle fill="#5E3B25" stroke="#5E3B25" stroke-width="0.5" stroke-miterlimit="10" cx="162.47" cy="127.71" r="1.125"/>
	<circle fill="#5E3B25" stroke="#5E3B25" stroke-width="0.5" stroke-miterlimit="10" cx="152.595" cy="144.36" r="1"/>
	<circle fill="#5E3B25" stroke="#5E3B25" stroke-width="0.5" stroke-miterlimit="10" cx="141.053" cy="140.069" r="1.208"/>
	<circle fill="#5E3B25" stroke="#5E3B25" stroke-width="0.5" stroke-miterlimit="10" cx="119.345" cy="149.761" r="3.25"/>
	<path fill="#717272" d="M345.095,85.86"/>
	<path fill="#E0FFFF" stroke="#000000" stroke-miterlimit="10" d="M101.907,303.61"/>
	<path opacity="0.4" fill="#685241" d="M110.839,179.419c24.197-59.633,96.48-86.607,161.447-60.244
		c9.275,3.764,17.898,8.414,25.799,13.791c-21.366-25.276-53.294-41.337-88.981-41.35c-64.356-0.024-116.55,52.128-116.573,116.485
		c-0.013,32.404,13.208,61.721,34.548,82.851C103.106,258.715,95.564,217.061,110.839,179.419z"/>
	<path fill="#5D5D5D" d="M57.768,353.287"/>
	<path fill="#5D5D5D" d="M73.438,369.708"/>
</g>
<g>
</g>
<g>
</g>
<g>
</g>
<g>
</g>
<g>
</g>
<g>
</g>
<g>
</g>
<g>
</g>
<g>
</g>
<g>
</g>
<g>
</g>
<g>
</g>
<g>
</g>
<g>
</g>
<g>
</g>
</svg>
