<?xml version="1.0" encoding="utf-8"?>
<!-- Generator: Adobe Illustrator 16.0.0, SVG Export Plug-In . SVG Version: 6.00 Build 0)  -->
<!DOCTYPE svg PUBLIC "-//W3C//DTD SVG 1.1//EN" "http://www.w3.org/Graphics/SVG/1.1/DTD/svg11.dtd">
<svg version="1.1" id="Layer_1" xmlns="http://www.w3.org/2000/svg" xmlns:xlink="http://www.w3.org/1999/xlink" x="0px" y="0px"
	 width="850.39px" height="850.39px" viewBox="0 0 850.39 850.39" enable-background="new 0 0 850.39 850.39" xml:space="preserve">
<g>
	<path fill="#D1D1D1" d="M682,677.653C682,693.309,669.31,706,653.654,706H330.346C314.69,706,302,693.309,302,677.653V268.347
		C302,252.691,314.69,240,330.346,240h323.309C669.31,240,682,252.691,682,268.347V677.653z"/>
	<path fill="#DFE7F4" d="M674,670.653C674,686.309,661.31,699,645.654,699H322.346C306.69,699,294,686.309,294,670.653V261.347
		C294,245.691,306.69,233,322.346,233h323.309C661.31,233,674,245.691,674,261.347V670.653z"/>
	<rect x="606" y="266" fill="#D1D1D1" width="35" height="7"/>
	<g>
		<path fill="#FFFFFF" d="M645,367.827c0,7.828-6.346,14.173-14.174,14.173H337.174c-7.828,0-14.174-6.346-14.174-14.173v-52.653
			c0-7.828,6.346-14.173,14.174-14.173h293.652c7.828,0,14.174,6.346,14.174,14.173V367.827z"/>
		<path fill="#FFF8FF" d="M645,479.992c0,9.394-7.614,17.008-17.008,17.008H340.008c-9.394,0-17.008-7.614-17.008-17.008v-78.984
			c0-9.394,7.614-17.008,17.008-17.008h287.984c9.394,0,17.008,7.614,17.008,17.008V479.992z"/>
		<path fill="#FFFFFF" d="M645,573.481c0,7.19-7.614,13.519-17.008,13.519H340.008c-9.394,0-17.008-6.328-17.008-13.519V513.02
			c0-7.191,7.614-13.02,17.008-13.02h287.984c9.394,0,17.008,5.828,17.008,13.02V573.481z"/>
		<g>
			<circle fill="#D3D3D3" cx="609.391" cy="316.895" r="3.823"/>
			<circle fill="#DDDDDD" cx="618.5" cy="316.895" r="3.823"/>
			<circle fill="#E2E2E2" cx="627.61" cy="316.895" r="3.823"/>
			<path fill="#EAEAEA" d="M579,336.014c0,2.201-1.784,3.986-3.985,3.986H340.985c-2.201,0-3.985-1.785-3.985-3.986v-1.028
				c0-2.201,1.784-3.986,3.985-3.986h234.029c2.201,0,3.985,1.785,3.985,3.986V336.014z"/>
			<path fill="#EAEAEA" d="M594,351.75c0,2.347-1.902,4.25-4.25,4.25h-248.5c-2.347,0-4.25-1.903-4.25-4.25v-0.5
				c0-2.347,1.903-4.25,4.25-4.25h248.5c2.348,0,4.25,1.903,4.25,4.25V351.75z"/>
			<path fill="#EAEAEA" d="M594,367.75c0,2.347-1.902,4.25-4.25,4.25h-248.5c-2.347,0-4.25-1.903-4.25-4.25v-0.5
				c0-2.347,1.903-4.25,4.25-4.25h248.5c2.348,0,4.25,1.903,4.25,4.25V367.75z"/>
			<linearGradient id="SVGID_1_" gradientUnits="userSpaceOnUse" x1="337" y1="316.5" x2="500.5" y2="316.5">
				<stop  offset="0" style="stop-color:#2AC77D;stop-opacity:0.2"/>
				<stop  offset="0.378" style="stop-color:#1ED38E;stop-opacity:0.1"/>
				<stop  offset="0.8291" style="stop-color:#CCE0F4;stop-opacity:0.1"/>
			</linearGradient>
			<path fill="url(#SVGID_1_)" d="M500.5,316.5c0,2.9-4.114,5.5-9.19,5.5H346.191c-5.076,0-9.191-2.6-9.191-5.5l0,0
				c0-2.9,4.115-5.5,9.191-5.5H491.31C496.386,311,500.5,313.6,500.5,316.5L500.5,316.5z"/>
		</g>
		<g>
			<circle fill="#D3D3D3" cx="608.391" cy="518.895" r="3.823"/>
			<circle fill="#DDDDDD" cx="617.5" cy="518.895" r="3.823"/>
			<circle fill="#E2E2E2" cx="626.61" cy="518.895" r="3.823"/>
			<path fill="#EAEAEA" d="M578,538.014c0,2.201-1.784,3.986-3.985,3.986H339.985c-2.201,0-3.985-1.785-3.985-3.986v-1.027
				c0-2.201,1.784-3.986,3.985-3.986h234.029c2.201,0,3.985,1.785,3.985,3.986V538.014z"/>
			<path fill="#EAEAEA" d="M588,553.75c0,2.348-1.865,4.25-4.167,4.25H340.167c-2.302,0-4.167-1.902-4.167-4.25v-0.5
				c0-2.348,1.866-4.25,4.167-4.25h243.666c2.302,0,4.167,1.902,4.167,4.25V553.75z"/>
			<path fill="#EAEAEA" d="M502,569.75c0,2.348-0.732,4.25-2.254,4.25H338.753c-1.521,0-2.753-1.902-2.753-4.25v-0.5
				c0-2.348,1.233-4.25,2.753-4.25h160.993c1.521,0,2.254,1.902,2.254,4.25V569.75z"/>
			<linearGradient id="SVGID_2_" gradientUnits="userSpaceOnUse" x1="336" y1="518.5" x2="499.5" y2="518.5">
				<stop  offset="0.0013" style="stop-color:#E5C77D;stop-opacity:0.2"/>
				<stop  offset="0.21" style="stop-color:#EBCD58;stop-opacity:0.1446"/>
				<stop  offset="0.378" style="stop-color:#F1D338;stop-opacity:0.1"/>
				<stop  offset="0.8291" style="stop-color:#CCE0F4;stop-opacity:0.1"/>
			</linearGradient>
			<path fill="url(#SVGID_2_)" d="M499.5,518.5c0,2.9-4.114,5.5-9.19,5.5H345.191c-5.076,0-9.191-2.6-9.191-5.5l0,0
				c0-2.9,4.115-5.5,9.191-5.5H490.31C495.386,513,499.5,515.6,499.5,518.5L499.5,518.5z"/>
		</g>
	</g>
	<g>
		<path fill="#4193D6" d="M349.729,263.707c0.335,0.142,0.614,0.367,0.835,0.677s0.354,0.627,0.398,0.954
			c0.044,0.327-0.018,0.623-0.186,0.889c-0.168,0.266-0.464,0.442-0.889,0.53c-0.813,0.142-1.578,0.203-2.294,0.186
			c-0.716-0.018-1.339-0.026-1.869-0.026c0,2.121,0.008,4.208,0.026,6.259c0.017,2.051,0.009,4.217-0.026,6.497
			c0,0.495-0.168,0.853-0.504,1.074c-0.336,0.221-0.703,0.313-1.101,0.278c-0.398-0.036-0.765-0.195-1.101-0.478
			c-0.336-0.283-0.504-0.672-0.504-1.167c-0.018-2.086-0.026-4.163-0.026-6.231c0-2.069,0-4.146,0-6.232
			c-0.159,0-0.429,0.009-0.809,0.026c-0.38,0.018-0.795,0.022-1.247,0.014c-0.451-0.009-0.915-0.044-1.392-0.106
			c-0.478-0.062-0.893-0.181-1.247-0.357c-0.283-0.142-0.468-0.35-0.557-0.624c-0.089-0.273-0.093-0.552-0.013-0.835
			c0.08-0.282,0.225-0.548,0.438-0.796c0.212-0.247,0.477-0.415,0.795-0.504c1.485-0.088,2.921-0.119,4.31-0.093
			c1.388,0.026,2.798,0.04,4.229,0.04c0.424,0,0.849-0.004,1.273-0.014c0.424-0.008,0.857-0.013,1.3-0.013L349.729,263.707z"/>
		<path fill="#4193D6" d="M348.801,273.679c0.124-0.513,0.296-1.017,0.517-1.512c0.221-0.495,0.491-0.968,0.809-1.419
			c0.318-0.451,0.676-0.862,1.074-1.233s0.826-0.672,1.286-0.901c0.813-0.424,1.631-0.641,2.453-0.649s1.586,0.154,2.294,0.49
			c0.707,0.336,1.308,0.835,1.803,1.498c0.495,0.663,0.822,1.455,0.981,2.374c0.088,0.601,0.137,1.171,0.146,1.71
			c0.009,0.54-0.049,1.101-0.172,1.685c-0.177,0.831-0.535,1.657-1.074,2.479c-0.54,0.822-1.185,1.512-1.936,2.068
			c-0.752,0.557-1.574,0.924-2.466,1.101c-0.893,0.177-1.79,0.035-2.692-0.425c-0.407-0.194-0.773-0.42-1.101-0.676
			s-0.623-0.562-0.888-0.915c-0.301-0.389-0.535-0.796-0.703-1.22c-0.168-0.425-0.305-0.866-0.411-1.326
			c-0.124-0.494-0.168-0.994-0.133-1.498c0.035-0.504,0.097-0.994,0.186-1.472L348.801,273.679z M351.983,274.235
			c-0.053,0.283-0.097,0.562-0.132,0.835c-0.036,0.274-0.036,0.553,0,0.836c0.053,0.407,0.163,0.778,0.331,1.113
			c0.168,0.337,0.389,0.602,0.663,0.796c0.274,0.194,0.588,0.296,0.941,0.305c0.354,0.01,0.733-0.102,1.141-0.331
			c0.512-0.301,0.955-0.765,1.326-1.393c0.372-0.627,0.601-1.281,0.689-1.962s0.018-1.326-0.212-1.937
			c-0.23-0.609-0.681-1.047-1.353-1.312c-0.442,0-0.849,0.084-1.22,0.252c-0.372,0.168-0.694,0.39-0.968,0.663
			c-0.274,0.274-0.513,0.597-0.716,0.968C352.27,273.439,352.106,273.829,351.983,274.235z"/>
		<path fill="#4193D6" d="M374.206,277.896c0.3,0.513,0.402,0.972,0.305,1.379c-0.097,0.406-0.296,0.712-0.597,0.915
			c-0.301,0.202-0.667,0.282-1.101,0.238s-0.853-0.27-1.26-0.677c-0.424,0.301-0.866,0.535-1.326,0.703
			c-0.46,0.168-0.946,0.313-1.458,0.438c-0.796,0.177-1.561,0.163-2.294-0.04c-0.734-0.203-1.384-0.534-1.949-0.994
			c-0.566-0.459-1.025-1.029-1.379-1.71c-0.354-0.681-0.548-1.419-0.583-2.215c-0.053-0.884,0.013-1.732,0.199-2.546
			c0.186-0.812,0.481-1.556,0.889-2.228c0.406-0.672,0.941-1.246,1.604-1.724c0.663-0.478,1.445-0.813,2.347-1.008
			c0.53-0.106,1.065-0.159,1.604-0.159c0.539,0,1.074,0.044,1.604,0.133c-0.018-0.389-0.031-0.836-0.04-1.34
			s-0.013-0.994-0.013-1.472s0.018-0.905,0.053-1.286c0.035-0.38,0.08-0.649,0.132-0.809c0.124-0.318,0.314-0.562,0.57-0.729
			c0.256-0.168,0.526-0.256,0.809-0.265s0.561,0.062,0.835,0.212c0.274,0.15,0.491,0.376,0.65,0.676
			c0.035,0.089,0.08,0.173,0.132,0.252c0.053,0.08,0.08,0.164,0.08,0.252c0.018,2.316,0.022,4.605,0.014,6.869
			c-0.009,2.263-0.014,4.553-0.014,6.868C374.091,277.736,374.153,277.824,374.206,277.896z M370.52,276.437
			c0.035-0.053,0.102-0.106,0.199-0.159c0.097-0.053,0.146-0.123,0.146-0.212c0-0.743,0-1.472,0-2.188
			c0-0.716-0.009-1.445-0.026-2.188c-0.424-0.088-0.866-0.142-1.326-0.159s-0.906,0.026-1.339,0.133
			c-0.434,0.106-0.832,0.283-1.193,0.53c-0.363,0.248-0.65,0.602-0.862,1.061c-0.106,0.336-0.204,0.673-0.292,1.008
			c-0.089,0.336-0.137,0.663-0.146,0.981s0.031,0.632,0.12,0.941c0.088,0.31,0.239,0.605,0.451,0.889
			c0.07,0.07,0.155,0.142,0.252,0.212c0.097,0.071,0.287,0.194,0.57,0.371c0.654,0.053,1.277-0.009,1.87-0.186
			C369.534,277.294,370.06,276.949,370.52,276.437z"/>
		<path fill="#4193D6" d="M376.619,273.679c0.124-0.513,0.296-1.017,0.517-1.512c0.221-0.495,0.491-0.968,0.809-1.419
			c0.318-0.451,0.676-0.862,1.074-1.233s0.826-0.672,1.286-0.901c0.813-0.424,1.631-0.641,2.453-0.649s1.586,0.154,2.294,0.49
			c0.707,0.336,1.308,0.835,1.803,1.498c0.495,0.663,0.822,1.455,0.981,2.374c0.088,0.601,0.137,1.171,0.146,1.71
			c0.009,0.54-0.049,1.101-0.172,1.685c-0.177,0.831-0.535,1.657-1.074,2.479c-0.54,0.822-1.185,1.512-1.936,2.068
			c-0.752,0.557-1.574,0.924-2.466,1.101c-0.893,0.177-1.79,0.035-2.692-0.425c-0.407-0.194-0.773-0.42-1.101-0.676
			s-0.623-0.562-0.888-0.915c-0.301-0.389-0.535-0.796-0.703-1.22c-0.168-0.425-0.305-0.866-0.411-1.326
			c-0.124-0.494-0.168-0.994-0.133-1.498c0.035-0.504,0.097-0.994,0.186-1.472L376.619,273.679z M379.801,274.235
			c-0.053,0.283-0.097,0.562-0.132,0.835c-0.036,0.274-0.036,0.553,0,0.836c0.053,0.407,0.163,0.778,0.331,1.113
			c0.168,0.337,0.389,0.602,0.663,0.796c0.274,0.194,0.588,0.296,0.941,0.305c0.354,0.01,0.733-0.102,1.141-0.331
			c0.512-0.301,0.955-0.765,1.326-1.393c0.372-0.627,0.601-1.281,0.689-1.962s0.018-1.326-0.212-1.937
			c-0.23-0.609-0.681-1.047-1.353-1.312c-0.442,0-0.849,0.084-1.22,0.252c-0.372,0.168-0.694,0.39-0.968,0.663
			c-0.274,0.274-0.513,0.597-0.716,0.968C380.088,273.439,379.925,273.829,379.801,274.235z"/>
		<path fill="#4193D6" d="M403.164,278.372c0.194,0.178,0.358,0.402,0.491,0.677c0.132,0.274,0.203,0.548,0.212,0.822
			c0.009,0.273-0.053,0.53-0.186,0.769c-0.132,0.239-0.367,0.42-0.703,0.544c-0.265,0.088-0.557,0.105-0.875,0.053
			c-0.318-0.053-0.632-0.159-0.941-0.318c-0.31-0.159-0.583-0.349-0.822-0.57c-0.239-0.221-0.411-0.464-0.517-0.729
			c-0.036-0.089-0.062-0.19-0.08-0.306c-0.018-0.114-0.026-0.216-0.026-0.305v-14.718c0-0.407,0.154-0.752,0.464-1.034
			c0.309-0.283,0.65-0.451,1.021-0.504c0.177-0.018,0.367,0.009,0.57,0.079c0.203,0.071,0.393,0.173,0.57,0.305
			c0.177,0.133,0.323,0.288,0.438,0.465c0.115,0.177,0.172,0.362,0.172,0.557c0,0.46,0,1.069,0,1.83c0,0.76,0.004,1.591,0.013,2.492
			c0.009,0.902,0.013,1.835,0.013,2.798c0,0.964-0.004,1.888-0.013,2.771c-0.009,0.884-0.013,1.693-0.013,2.427
			s-0.009,1.321-0.027,1.764L403.164,278.372z"/>
		<path fill="#4193D6" d="M406.002,264.185c0.07-0.654,0.296-1.136,0.676-1.445c0.38-0.31,0.782-0.46,1.207-0.451
			c0.424,0.01,0.817,0.173,1.18,0.491c0.362,0.318,0.552,0.769,0.57,1.353c0.035,0.601-0.12,1.065-0.464,1.392
			c-0.345,0.328-0.738,0.514-1.18,0.558s-0.857-0.075-1.246-0.358c-0.389-0.282-0.628-0.733-0.716-1.353L406.002,264.185z
			 M409.502,279.274c-0.036,0.354-0.159,0.667-0.371,0.941c-0.212,0.273-0.456,0.473-0.729,0.597
			c-0.274,0.123-0.57,0.149-0.888,0.079c-0.318-0.07-0.602-0.265-0.849-0.583c-0.142-0.177-0.243-0.376-0.305-0.597
			s-0.102-0.451-0.119-0.689c-0.018-0.239-0.022-0.478-0.013-0.717c0.008-0.238,0.013-0.454,0.013-0.649
			c-0.018-1.043-0.022-2.077-0.013-3.103c0.008-1.025,0.004-2.06-0.014-3.103c0-0.425-0.026-0.854-0.079-1.286
			c-0.053-0.434-0.027-0.862,0.079-1.286c0.088-0.318,0.243-0.593,0.464-0.822c0.221-0.229,0.468-0.389,0.743-0.478
			c0.274-0.088,0.557-0.097,0.849-0.026c0.292,0.07,0.543,0.256,0.755,0.557c0.283,0.354,0.424,0.703,0.424,1.048s0,0.765,0,1.26
			c0,0.601,0,1.202,0,1.803c0,0.602,0.009,1.193,0.027,1.777c0.017,0.849,0.026,1.697,0.026,2.546s0,1.697,0,2.546V279.274z"/>
		<path fill="#4193D6" d="M411.81,278.24c-0.106-0.301-0.151-0.597-0.133-0.889c0.018-0.292,0.093-0.557,0.226-0.796
			c0.132-0.238,0.322-0.424,0.57-0.557s0.548-0.182,0.902-0.146c0.194,0.018,0.371,0.07,0.53,0.158
			c0.159,0.089,0.305,0.195,0.438,0.318c0.133,0.124,0.265,0.257,0.398,0.398s0.27,0.265,0.411,0.371
			c0.3,0.229,0.619,0.397,0.955,0.504c0.335,0.105,0.689,0.186,1.061,0.238c0.248,0,0.446-0.062,0.597-0.186
			c0.15-0.123,0.252-0.273,0.305-0.451c0.053-0.176,0.066-0.366,0.04-0.569c-0.027-0.203-0.093-0.367-0.199-0.491
			c-0.301-0.3-0.667-0.494-1.101-0.583s-0.835-0.194-1.207-0.318c-0.53-0.177-1.052-0.402-1.564-0.677
			c-0.513-0.273-0.928-0.649-1.247-1.127c-0.336-0.494-0.535-1.021-0.597-1.577c-0.062-0.558-0.018-1.101,0.133-1.631
			c0.15-0.531,0.402-1.017,0.756-1.459c0.353-0.441,0.777-0.805,1.272-1.087c0.372-0.213,0.778-0.35,1.22-0.411
			c0.441-0.062,0.888-0.075,1.339-0.04c0.451,0.035,0.897,0.119,1.339,0.252s0.849,0.278,1.22,0.438
			c0.424,0.194,0.742,0.469,0.955,0.822c0.212,0.354,0.313,0.712,0.305,1.074s-0.132,0.676-0.371,0.941
			c-0.239,0.265-0.588,0.397-1.047,0.397c-0.283,0-0.54-0.049-0.769-0.146c-0.23-0.098-0.469-0.19-0.716-0.279
			c-0.318-0.123-0.663-0.207-1.034-0.252c-0.371-0.043-0.672-0.021-0.901,0.066c-0.071,0.019-0.151,0.076-0.239,0.173
			c-0.089,0.098-0.155,0.217-0.199,0.357c-0.044,0.143-0.053,0.283-0.026,0.425s0.119,0.257,0.278,0.345
			c0.424,0.23,0.875,0.407,1.353,0.53c0.478,0.124,0.946,0.266,1.406,0.425c0.459,0.159,0.888,0.362,1.286,0.609
			c0.398,0.248,0.729,0.602,0.995,1.061c0.389,0.673,0.587,1.375,0.597,2.108c0.008,0.734-0.137,1.419-0.438,2.056
			s-0.742,1.18-1.326,1.631s-1.264,0.72-2.042,0.809c-0.548,0.054-1.087,0.022-1.618-0.093s-1.043-0.301-1.538-0.557
			c-0.495-0.257-0.955-0.562-1.379-0.915s-0.796-0.725-1.114-1.114L411.81,278.24z"/>
		<path fill="#4193D6" d="M424.167,271.186c-0.354-0.088-0.659-0.238-0.915-0.451c-0.257-0.212-0.434-0.459-0.531-0.742
			c-0.097-0.282-0.097-0.574,0-0.875s0.314-0.574,0.65-0.822c0.283-0.212,0.601-0.318,0.955-0.318s0.698,0,1.034,0
			c0-0.123-0.009-0.393-0.026-0.809c-0.018-0.415-0.022-0.87-0.013-1.366c0.009-0.494,0.04-0.968,0.093-1.418
			c0.053-0.451,0.15-0.765,0.292-0.941c0.353-0.495,0.791-0.729,1.313-0.703c0.521,0.026,0.95,0.278,1.286,0.756
			c0.07,0.089,0.137,0.194,0.199,0.318c0.062,0.124,0.092,0.238,0.092,0.345c0.018,0.637,0.022,1.272,0.014,1.909
			s-0.014,1.273-0.014,1.909h2.096c0.318,0,0.592,0.106,0.822,0.318c0.229,0.212,0.394,0.46,0.49,0.742
			c0.098,0.283,0.124,0.575,0.08,0.876c-0.045,0.301-0.182,0.548-0.411,0.742c-0.407,0.336-0.88,0.513-1.419,0.53
			s-1.092,0.026-1.658,0.026c0,0.973-0.004,1.945-0.013,2.917c-0.009,0.973-0.005,1.945,0.013,2.918
			c0,0.424,0.022,0.857,0.066,1.299c0.045,0.442,0.014,0.866-0.092,1.273c-0.089,0.318-0.239,0.57-0.451,0.756
			c-0.213,0.186-0.451,0.3-0.717,0.345c-0.265,0.044-0.539,0.026-0.821-0.054c-0.283-0.079-0.548-0.226-0.796-0.438
			c-0.124-0.124-0.216-0.335-0.278-0.636s-0.102-0.619-0.119-0.955c-0.018-0.389-0.018-0.805,0-1.246c0-0.354,0-0.813,0-1.38
			c0-0.565-0.005-1.153-0.013-1.763c-0.009-0.61-0.014-1.189-0.014-1.737s0-0.981,0-1.3L424.167,271.186z"/>
	</g>
</g>
<g>
</g>
<g>
</g>
<g>
</g>
<g>
</g>
<g>
</g>
<g>
</g>
<g>
</g>
<g>
</g>
<g>
</g>
<g>
</g>
<g>
</g>
<g>
</g>
<g>
</g>
<g>
</g>
<g>
</g>
</svg>
