<?xml version="1.0" encoding="utf-8"?>
<!-- Generator: Adobe Illustrator 16.0.0, SVG Export Plug-In . SVG Version: 6.00 Build 0)  -->
<!DOCTYPE svg PUBLIC "-//W3C//DTD SVG 1.1//EN" "http://www.w3.org/Graphics/SVG/1.1/DTD/svg11.dtd">
<svg version="1.1" id="Layer_1" xmlns="http://www.w3.org/2000/svg" xmlns:xlink="http://www.w3.org/1999/xlink" x="0px" y="0px"
	 width="850.39px" height="850.39px" viewBox="0 0 850.39 850.39" enable-background="new 0 0 850.39 850.39" xml:space="preserve">
<g>
	<path fill="#BFBFBF" d="M679,673.653C679,689.309,666.31,702,650.654,702H327.346C311.69,702,299,689.309,299,673.653V264.347
		C299,248.691,311.69,236,327.346,236h323.309C666.31,236,679,248.691,679,264.347V673.653z"/>
	<path fill="#FCE0F1" d="M674,670.653C674,686.309,661.31,699,645.654,699H322.346C306.69,699,294,686.309,294,670.653V261.347
		C294,245.691,306.69,233,322.346,233h323.309C661.31,233,674,245.691,674,261.347V670.653z"/>
	<rect x="606" y="266" fill="#D1D1D1" width="35" height="7"/>
	<g>
		<path fill="#FFFFFF" d="M645,367.827c0,7.828-6.346,14.173-14.174,14.173H337.174c-7.828,0-14.174-6.346-14.174-14.173v-52.653
			c0-7.828,6.346-14.173,14.174-14.173h293.652c7.828,0,14.174,6.346,14.174,14.173V367.827z"/>
		<path fill="#F0F5FC" d="M645,479.992c0,9.394-7.614,17.008-17.008,17.008H340.008c-9.394,0-17.008-7.614-17.008-17.008v-78.984
			c0-9.394,7.614-17.008,17.008-17.008h287.984c9.394,0,17.008,7.614,17.008,17.008V479.992z"/>
		<path fill="#FFFFFF" d="M645,573.481c0,7.19-7.614,13.519-17.008,13.519H340.008c-9.394,0-17.008-6.328-17.008-13.519V513.02
			c0-7.191,7.614-13.02,17.008-13.02h287.984c9.394,0,17.008,5.828,17.008,13.02V573.481z"/>
		<g>
			<circle fill="#D3D3D3" cx="609.391" cy="316.895" r="3.823"/>
			<circle fill="#DDDDDD" cx="618.5" cy="316.895" r="3.823"/>
			<circle fill="#E2E2E2" cx="627.61" cy="316.895" r="3.823"/>
			<path fill="#EAEAEA" d="M579,336.014c0,2.201-1.784,3.986-3.985,3.986H340.985c-2.201,0-3.985-1.785-3.985-3.986v-1.028
				c0-2.201,1.784-3.986,3.985-3.986h234.029c2.201,0,3.985,1.785,3.985,3.986V336.014z"/>
			<path fill="#EAEAEA" d="M594,351.75c0,2.347-1.902,4.25-4.25,4.25h-248.5c-2.347,0-4.25-1.903-4.25-4.25v-0.5
				c0-2.347,1.903-4.25,4.25-4.25h248.5c2.348,0,4.25,1.903,4.25,4.25V351.75z"/>
			<path fill="#EAEAEA" d="M594,367.75c0,2.347-1.902,4.25-4.25,4.25h-248.5c-2.347,0-4.25-1.903-4.25-4.25v-0.5
				c0-2.347,1.903-4.25,4.25-4.25h248.5c2.348,0,4.25,1.903,4.25,4.25V367.75z"/>
			<linearGradient id="SVGID_1_" gradientUnits="userSpaceOnUse" x1="337" y1="316.5" x2="500.5" y2="316.5">
				<stop  offset="0" style="stop-color:#2AC77D;stop-opacity:0.2"/>
				<stop  offset="0.378" style="stop-color:#1ED38E;stop-opacity:0.1"/>
				<stop  offset="0.8291" style="stop-color:#CCE0F4;stop-opacity:0.1"/>
			</linearGradient>
			<path fill="url(#SVGID_1_)" d="M500.5,316.5c0,2.9-4.114,5.5-9.19,5.5H346.191c-5.076,0-9.191-2.6-9.191-5.5l0,0
				c0-2.9,4.115-5.5,9.191-5.5H491.31C496.386,311,500.5,313.6,500.5,316.5L500.5,316.5z"/>
		</g>
		<g>
			<circle fill="#D3D3D3" cx="608.391" cy="518.895" r="3.823"/>
			<circle fill="#DDDDDD" cx="617.5" cy="518.895" r="3.823"/>
			<circle fill="#E2E2E2" cx="626.61" cy="518.895" r="3.823"/>
			<path fill="#EAEAEA" d="M578,538.014c0,2.201-1.784,3.986-3.985,3.986H339.985c-2.201,0-3.985-1.785-3.985-3.986v-1.027
				c0-2.201,1.784-3.986,3.985-3.986h234.029c2.201,0,3.985,1.785,3.985,3.986V538.014z"/>
			<path fill="#EAEAEA" d="M588,553.75c0,2.348-1.865,4.25-4.167,4.25H340.167c-2.302,0-4.167-1.902-4.167-4.25v-0.5
				c0-2.348,1.866-4.25,4.167-4.25h243.666c2.302,0,4.167,1.902,4.167,4.25V553.75z"/>
			<path fill="#EAEAEA" d="M502,569.75c0,2.348-0.732,4.25-2.254,4.25H338.753c-1.521,0-2.753-1.902-2.753-4.25v-0.5
				c0-2.348,1.233-4.25,2.753-4.25h160.993c1.521,0,2.254,1.902,2.254,4.25V569.75z"/>
			<linearGradient id="SVGID_2_" gradientUnits="userSpaceOnUse" x1="336" y1="518.5" x2="499.5" y2="518.5">
				<stop  offset="0.0013" style="stop-color:#E5C77D;stop-opacity:0.2"/>
				<stop  offset="0.21" style="stop-color:#EBCD58;stop-opacity:0.1446"/>
				<stop  offset="0.378" style="stop-color:#F1D338;stop-opacity:0.1"/>
				<stop  offset="0.8291" style="stop-color:#CCE0F4;stop-opacity:0.1"/>
			</linearGradient>
			<path fill="url(#SVGID_2_)" d="M499.5,518.5c0,2.9-4.114,5.5-9.19,5.5H345.191c-5.076,0-9.191-2.6-9.191-5.5l0,0
				c0-2.9,4.115-5.5,9.191-5.5H490.31C495.386,513,499.5,515.6,499.5,518.5L499.5,518.5z"/>
		</g>
	</g>
	<g>
		<path fill="#4193D6" d="M349.729,263.707c0.335,0.142,0.614,0.367,0.835,0.677s0.354,0.627,0.398,0.954
			c0.044,0.327-0.018,0.623-0.186,0.889c-0.168,0.266-0.464,0.442-0.889,0.53c-0.813,0.142-1.578,0.203-2.294,0.186
			c-0.716-0.018-1.339-0.026-1.869-0.026c0,2.121,0.008,4.208,0.026,6.259c0.017,2.051,0.009,4.217-0.026,6.497
			c0,0.495-0.168,0.853-0.504,1.074c-0.336,0.221-0.703,0.313-1.101,0.278c-0.398-0.036-0.765-0.195-1.101-0.478
			c-0.336-0.283-0.504-0.672-0.504-1.167c-0.018-2.086-0.026-4.163-0.026-6.231c0-2.069,0-4.146,0-6.232
			c-0.159,0-0.429,0.009-0.809,0.026c-0.38,0.018-0.795,0.022-1.247,0.014c-0.451-0.009-0.915-0.044-1.392-0.106
			c-0.478-0.062-0.893-0.181-1.247-0.357c-0.283-0.142-0.468-0.35-0.557-0.624c-0.089-0.273-0.093-0.552-0.013-0.835
			c0.08-0.282,0.225-0.548,0.438-0.796c0.212-0.247,0.477-0.415,0.795-0.504c1.485-0.088,2.921-0.119,4.31-0.093
			c1.388,0.026,2.798,0.04,4.229,0.04c0.424,0,0.849-0.004,1.273-0.014c0.424-0.008,0.857-0.013,1.3-0.013L349.729,263.707z"/>
		<path fill="#4193D6" d="M348.801,273.679c0.124-0.513,0.296-1.017,0.517-1.512c0.221-0.495,0.491-0.968,0.809-1.419
			c0.318-0.451,0.676-0.862,1.074-1.233s0.826-0.672,1.286-0.901c0.813-0.424,1.631-0.641,2.453-0.649s1.586,0.154,2.294,0.49
			c0.707,0.336,1.308,0.835,1.803,1.498c0.495,0.663,0.822,1.455,0.981,2.374c0.088,0.601,0.137,1.171,0.146,1.71
			c0.009,0.54-0.049,1.101-0.172,1.685c-0.177,0.831-0.535,1.657-1.074,2.479c-0.54,0.822-1.185,1.512-1.936,2.068
			c-0.752,0.557-1.574,0.924-2.466,1.101c-0.893,0.177-1.79,0.035-2.692-0.425c-0.407-0.194-0.773-0.42-1.101-0.676
			s-0.623-0.562-0.888-0.915c-0.301-0.389-0.535-0.796-0.703-1.22c-0.168-0.425-0.305-0.866-0.411-1.326
			c-0.124-0.494-0.168-0.994-0.133-1.498c0.035-0.504,0.097-0.994,0.186-1.472L348.801,273.679z M351.983,274.235
			c-0.053,0.283-0.097,0.562-0.132,0.835c-0.036,0.274-0.036,0.553,0,0.836c0.053,0.407,0.163,0.778,0.331,1.113
			c0.168,0.337,0.389,0.602,0.663,0.796c0.274,0.194,0.588,0.296,0.941,0.305c0.354,0.01,0.733-0.102,1.141-0.331
			c0.512-0.301,0.955-0.765,1.326-1.393c0.372-0.627,0.601-1.281,0.689-1.962s0.018-1.326-0.212-1.937
			c-0.23-0.609-0.681-1.047-1.353-1.312c-0.442,0-0.849,0.084-1.22,0.252c-0.372,0.168-0.694,0.39-0.968,0.663
			c-0.274,0.274-0.513,0.597-0.716,0.968C352.27,273.439,352.106,273.829,351.983,274.235z"/>
		<path fill="#4193D6" d="M374.206,277.896c0.3,0.513,0.402,0.972,0.305,1.379c-0.097,0.406-0.296,0.712-0.597,0.915
			c-0.301,0.202-0.667,0.282-1.101,0.238s-0.853-0.27-1.26-0.677c-0.424,0.301-0.866,0.535-1.326,0.703
			c-0.46,0.168-0.946,0.313-1.458,0.438c-0.796,0.177-1.561,0.163-2.294-0.04c-0.734-0.203-1.384-0.534-1.949-0.994
			c-0.566-0.459-1.025-1.029-1.379-1.71c-0.354-0.681-0.548-1.419-0.583-2.215c-0.053-0.884,0.013-1.732,0.199-2.546
			c0.186-0.812,0.481-1.556,0.889-2.228c0.406-0.672,0.941-1.246,1.604-1.724c0.663-0.478,1.445-0.813,2.347-1.008
			c0.53-0.106,1.065-0.159,1.604-0.159c0.539,0,1.074,0.044,1.604,0.133c-0.018-0.389-0.031-0.836-0.04-1.34
			s-0.013-0.994-0.013-1.472s0.018-0.905,0.053-1.286c0.035-0.38,0.08-0.649,0.132-0.809c0.124-0.318,0.314-0.562,0.57-0.729
			c0.256-0.168,0.526-0.256,0.809-0.265s0.561,0.062,0.835,0.212c0.274,0.15,0.491,0.376,0.65,0.676
			c0.035,0.089,0.08,0.173,0.132,0.252c0.053,0.08,0.08,0.164,0.08,0.252c0.018,2.316,0.022,4.605,0.014,6.869
			c-0.009,2.263-0.014,4.553-0.014,6.868C374.091,277.736,374.153,277.824,374.206,277.896z M370.52,276.437
			c0.035-0.053,0.102-0.106,0.199-0.159c0.097-0.053,0.146-0.123,0.146-0.212c0-0.743,0-1.472,0-2.188
			c0-0.716-0.009-1.445-0.026-2.188c-0.424-0.088-0.866-0.142-1.326-0.159s-0.906,0.026-1.339,0.133
			c-0.434,0.106-0.832,0.283-1.193,0.53c-0.363,0.248-0.65,0.602-0.862,1.061c-0.106,0.336-0.204,0.673-0.292,1.008
			c-0.089,0.336-0.137,0.663-0.146,0.981s0.031,0.632,0.12,0.941c0.088,0.31,0.239,0.605,0.451,0.889
			c0.07,0.07,0.155,0.142,0.252,0.212c0.097,0.071,0.287,0.194,0.57,0.371c0.654,0.053,1.277-0.009,1.87-0.186
			C369.534,277.294,370.06,276.949,370.52,276.437z"/>
		<path fill="#4193D6" d="M376.619,273.679c0.124-0.513,0.296-1.017,0.517-1.512c0.221-0.495,0.491-0.968,0.809-1.419
			c0.318-0.451,0.676-0.862,1.074-1.233s0.826-0.672,1.286-0.901c0.813-0.424,1.631-0.641,2.453-0.649s1.586,0.154,2.294,0.49
			c0.707,0.336,1.308,0.835,1.803,1.498c0.495,0.663,0.822,1.455,0.981,2.374c0.088,0.601,0.137,1.171,0.146,1.71
			c0.009,0.54-0.049,1.101-0.172,1.685c-0.177,0.831-0.535,1.657-1.074,2.479c-0.54,0.822-1.185,1.512-1.936,2.068
			c-0.752,0.557-1.574,0.924-2.466,1.101c-0.893,0.177-1.79,0.035-2.692-0.425c-0.407-0.194-0.773-0.42-1.101-0.676
			s-0.623-0.562-0.888-0.915c-0.301-0.389-0.535-0.796-0.703-1.22c-0.168-0.425-0.305-0.866-0.411-1.326
			c-0.124-0.494-0.168-0.994-0.133-1.498c0.035-0.504,0.097-0.994,0.186-1.472L376.619,273.679z M379.801,274.235
			c-0.053,0.283-0.097,0.562-0.132,0.835c-0.036,0.274-0.036,0.553,0,0.836c0.053,0.407,0.163,0.778,0.331,1.113
			c0.168,0.337,0.389,0.602,0.663,0.796c0.274,0.194,0.588,0.296,0.941,0.305c0.354,0.01,0.733-0.102,1.141-0.331
			c0.512-0.301,0.955-0.765,1.326-1.393c0.372-0.627,0.601-1.281,0.689-1.962s0.018-1.326-0.212-1.937
			c-0.23-0.609-0.681-1.047-1.353-1.312c-0.442,0-0.849,0.084-1.22,0.252c-0.372,0.168-0.694,0.39-0.968,0.663
			c-0.274,0.274-0.513,0.597-0.716,0.968C380.088,273.439,379.925,273.829,379.801,274.235z"/>
		<path fill="#4193D6" d="M403.164,278.372c0.194,0.178,0.358,0.402,0.491,0.677c0.132,0.274,0.203,0.548,0.212,0.822
			c0.009,0.273-0.053,0.53-0.186,0.769c-0.132,0.239-0.367,0.42-0.703,0.544c-0.265,0.088-0.557,0.105-0.875,0.053
			c-0.318-0.053-0.632-0.159-0.941-0.318c-0.31-0.159-0.583-0.349-0.822-0.57c-0.239-0.221-0.411-0.464-0.517-0.729
			c-0.036-0.089-0.062-0.19-0.08-0.306c-0.018-0.114-0.026-0.216-0.026-0.305v-14.718c0-0.407,0.154-0.752,0.464-1.034
			c0.309-0.283,0.65-0.451,1.021-0.504c0.177-0.018,0.367,0.009,0.57,0.079c0.203,0.071,0.393,0.173,0.57,0.305
			c0.177,0.133,0.323,0.288,0.438,0.465c0.115,0.177,0.172,0.362,0.172,0.557c0,0.46,0,1.069,0,1.83c0,0.76,0.004,1.591,0.013,2.492
			c0.009,0.902,0.013,1.835,0.013,2.798c0,0.964-0.004,1.888-0.013,2.771c-0.009,0.884-0.013,1.693-0.013,2.427
			s-0.009,1.321-0.027,1.764L403.164,278.372z"/>
		<path fill="#4193D6" d="M406.002,264.185c0.07-0.654,0.296-1.136,0.676-1.445c0.38-0.31,0.782-0.46,1.207-0.451
			c0.424,0.01,0.817,0.173,1.18,0.491c0.362,0.318,0.552,0.769,0.57,1.353c0.035,0.601-0.12,1.065-0.464,1.392
			c-0.345,0.328-0.738,0.514-1.18,0.558s-0.857-0.075-1.246-0.358c-0.389-0.282-0.628-0.733-0.716-1.353L406.002,264.185z
			 M409.502,279.274c-0.036,0.354-0.159,0.667-0.371,0.941c-0.212,0.273-0.456,0.473-0.729,0.597
			c-0.274,0.123-0.57,0.149-0.888,0.079c-0.318-0.07-0.602-0.265-0.849-0.583c-0.142-0.177-0.243-0.376-0.305-0.597
			s-0.102-0.451-0.119-0.689c-0.018-0.239-0.022-0.478-0.013-0.717c0.008-0.238,0.013-0.454,0.013-0.649
			c-0.018-1.043-0.022-2.077-0.013-3.103c0.008-1.025,0.004-2.06-0.014-3.103c0-0.425-0.026-0.854-0.079-1.286
			c-0.053-0.434-0.027-0.862,0.079-1.286c0.088-0.318,0.243-0.593,0.464-0.822c0.221-0.229,0.468-0.389,0.743-0.478
			c0.274-0.088,0.557-0.097,0.849-0.026c0.292,0.07,0.543,0.256,0.755,0.557c0.283,0.354,0.424,0.703,0.424,1.048s0,0.765,0,1.26
			c0,0.601,0,1.202,0,1.803c0,0.602,0.009,1.193,0.027,1.777c0.017,0.849,0.026,1.697,0.026,2.546s0,1.697,0,2.546V279.274z"/>
		<path fill="#4193D6" d="M411.81,278.24c-0.106-0.301-0.151-0.597-0.133-0.889c0.018-0.292,0.093-0.557,0.226-0.796
			c0.132-0.238,0.322-0.424,0.57-0.557s0.548-0.182,0.902-0.146c0.194,0.018,0.371,0.07,0.53,0.158
			c0.159,0.089,0.305,0.195,0.438,0.318c0.133,0.124,0.265,0.257,0.398,0.398s0.27,0.265,0.411,0.371
			c0.3,0.229,0.619,0.397,0.955,0.504c0.335,0.105,0.689,0.186,1.061,0.238c0.248,0,0.446-0.062,0.597-0.186
			c0.15-0.123,0.252-0.273,0.305-0.451c0.053-0.176,0.066-0.366,0.04-0.569c-0.027-0.203-0.093-0.367-0.199-0.491
			c-0.301-0.3-0.667-0.494-1.101-0.583s-0.835-0.194-1.207-0.318c-0.53-0.177-1.052-0.402-1.564-0.677
			c-0.513-0.273-0.928-0.649-1.247-1.127c-0.336-0.494-0.535-1.021-0.597-1.577c-0.062-0.558-0.018-1.101,0.133-1.631
			c0.15-0.531,0.402-1.017,0.756-1.459c0.353-0.441,0.777-0.805,1.272-1.087c0.372-0.213,0.778-0.35,1.22-0.411
			c0.441-0.062,0.888-0.075,1.339-0.04c0.451,0.035,0.897,0.119,1.339,0.252s0.849,0.278,1.22,0.438
			c0.424,0.194,0.742,0.469,0.955,0.822c0.212,0.354,0.313,0.712,0.305,1.074s-0.132,0.676-0.371,0.941
			c-0.239,0.265-0.588,0.397-1.047,0.397c-0.283,0-0.54-0.049-0.769-0.146c-0.23-0.098-0.469-0.19-0.716-0.279
			c-0.318-0.123-0.663-0.207-1.034-0.252c-0.371-0.043-0.672-0.021-0.901,0.066c-0.071,0.019-0.151,0.076-0.239,0.173
			c-0.089,0.098-0.155,0.217-0.199,0.357c-0.044,0.143-0.053,0.283-0.026,0.425s0.119,0.257,0.278,0.345
			c0.424,0.23,0.875,0.407,1.353,0.53c0.478,0.124,0.946,0.266,1.406,0.425c0.459,0.159,0.888,0.362,1.286,0.609
			c0.398,0.248,0.729,0.602,0.995,1.061c0.389,0.673,0.587,1.375,0.597,2.108c0.008,0.734-0.137,1.419-0.438,2.056
			s-0.742,1.18-1.326,1.631s-1.264,0.72-2.042,0.809c-0.548,0.054-1.087,0.022-1.618-0.093s-1.043-0.301-1.538-0.557
			c-0.495-0.257-0.955-0.562-1.379-0.915s-0.796-0.725-1.114-1.114L411.81,278.24z"/>
		<path fill="#4193D6" d="M424.167,271.186c-0.354-0.088-0.659-0.238-0.915-0.451c-0.257-0.212-0.434-0.459-0.531-0.742
			c-0.097-0.282-0.097-0.574,0-0.875s0.314-0.574,0.65-0.822c0.283-0.212,0.601-0.318,0.955-0.318s0.698,0,1.034,0
			c0-0.123-0.009-0.393-0.026-0.809c-0.018-0.415-0.022-0.87-0.013-1.366c0.009-0.494,0.04-0.968,0.093-1.418
			c0.053-0.451,0.15-0.765,0.292-0.941c0.353-0.495,0.791-0.729,1.313-0.703c0.521,0.026,0.95,0.278,1.286,0.756
			c0.07,0.089,0.137,0.194,0.199,0.318c0.062,0.124,0.092,0.238,0.092,0.345c0.018,0.637,0.022,1.272,0.014,1.909
			s-0.014,1.273-0.014,1.909h2.096c0.318,0,0.592,0.106,0.822,0.318c0.229,0.212,0.394,0.46,0.49,0.742
			c0.098,0.283,0.124,0.575,0.08,0.876c-0.045,0.301-0.182,0.548-0.411,0.742c-0.407,0.336-0.88,0.513-1.419,0.53
			s-1.092,0.026-1.658,0.026c0,0.973-0.004,1.945-0.013,2.917c-0.009,0.973-0.005,1.945,0.013,2.918
			c0,0.424,0.022,0.857,0.066,1.299c0.045,0.442,0.014,0.866-0.092,1.273c-0.089,0.318-0.239,0.57-0.451,0.756
			c-0.213,0.186-0.451,0.3-0.717,0.345c-0.265,0.044-0.539,0.026-0.821-0.054c-0.283-0.079-0.548-0.226-0.796-0.438
			c-0.124-0.124-0.216-0.335-0.278-0.636s-0.102-0.619-0.119-0.955c-0.018-0.389-0.018-0.805,0-1.246c0-0.354,0-0.813,0-1.38
			c0-0.565-0.005-1.153-0.013-1.763c-0.009-0.61-0.014-1.189-0.014-1.737s0-0.981,0-1.3L424.167,271.186z"/>
	</g>
</g>
<path fill="#C6C6C6" d="M635.596,658.621c1.462,15.587-9.987,29.408-25.574,30.871l-321.895,30.2
	c-15.586,1.463-29.407-9.988-30.87-25.575l-38.233-407.517c-1.462-15.587,9.987-29.408,25.574-30.871l321.895-30.2
	c15.587-1.462,29.407,9.988,30.87,25.575L635.596,658.621z"/>
<path fill="#DFE7F4" d="M630.977,655.399c1.463,15.587-9.987,29.408-25.574,30.87l-321.895,30.201
	c-15.587,1.462-29.407-9.988-30.87-25.575l-38.234-407.517c-1.462-15.587,9.987-29.408,25.574-30.871l321.895-30.2
	c15.587-1.462,29.407,9.988,30.87,25.575L630.977,655.399z"/>
<rect x="525.725" y="257.217" transform="matrix(0.9956 -0.0934 0.0934 0.9956 -21.9797 51.8859)" fill="#D1D1D1" width="35" height="7"/>
<path fill="#FFFFFF" d="M573.816,356.606c0.73,7.793-4.994,14.704-12.788,15.435l-292.369,27.43
	c-7.793,0.731-14.705-4.994-15.436-12.787l-4.918-52.423c-0.731-7.793,4.994-14.704,12.788-15.435l292.368-27.43
	c7.794-0.731,14.705,4.994,15.436,12.787L573.816,356.606z"/>
<path fill="#FFF8FF" d="M584.294,468.281c0.877,9.353-5.992,17.645-15.345,18.521l-286.726,26.901
	c-9.353,0.877-17.645-5.992-18.522-15.345l-7.378-78.64c-0.877-9.352,5.992-17.645,15.345-18.522l286.725-26.901
	c9.353-0.877,17.645,5.993,18.522,15.345L584.294,468.281z"/>
<path fill="#FFFFFF" d="M595.026,561.361c0.672,7.159-6.318,14.171-15.671,15.048l-286.725,26.901
	c-9.353,0.877-17.525-4.712-18.196-11.871l-5.648-60.197c-0.672-7.16,6.365-13.674,15.717-14.552l286.726-26.9
	c9.353-0.878,17.478,4.214,18.149,11.374L595.026,561.361z"/>
<g>
	<circle fill="#D3D3D3" cx="533.605" cy="309.222" r="3.823"/>
	<circle fill="#DDDDDD" cx="542.675" cy="308.372" r="3.823"/>
	<circle fill="#E2E2E2" cx="551.745" cy="307.521" r="3.823"/>
	<path fill="#EAEAEA" d="M505.133,331.098c0.206,2.191-1.403,4.135-3.596,4.34l-233.006,21.861c-2.191,0.206-4.134-1.404-4.34-3.596
		l-0.096-1.024c-0.206-2.191,1.404-4.135,3.596-4.34l233.006-21.861c2.191-0.206,4.134,1.404,4.34,3.596L505.133,331.098z"/>
	<path fill="#EAEAEA" d="M521.537,345.363c0.22,2.337-1.497,4.409-3.834,4.628L270.29,373.204c-2.337,0.219-4.409-1.498-4.628-3.834
		l-0.047-0.498c-0.219-2.337,1.498-4.409,3.834-4.628l247.414-23.212c2.338-0.219,4.409,1.498,4.629,3.834L521.537,345.363z"/>
	<path fill="#EAEAEA" d="M523.032,361.293c0.219,2.337-1.497,4.409-3.835,4.628l-247.413,23.212
		c-2.337,0.219-4.409-1.498-4.628-3.834l-0.047-0.498c-0.219-2.337,1.498-4.409,3.834-4.628l247.414-23.213
		c2.337-0.219,4.408,1.498,4.628,3.834L523.032,361.293z"/>
	
		<linearGradient id="SVGID_3_" gradientUnits="userSpaceOnUse" x1="276.752" y1="319.4424" x2="440.252" y2="319.4424" gradientTransform="matrix(0.9956 -0.0934 0.0934 0.9956 -43.0117 42.0806)">
		<stop  offset="0" style="stop-color:#2AC77D;stop-opacity:0.2"/>
		<stop  offset="0.378" style="stop-color:#1ED38E;stop-opacity:0.1"/>
		<stop  offset="0.8291" style="stop-color:#CCE0F4;stop-opacity:0.1"/>
	</linearGradient>
	<path fill="url(#SVGID_3_)" d="M425.153,319.001c0.271,2.887-3.583,5.86-8.636,6.334l-144.484,13.556
		c-5.053,0.474-9.394-1.73-9.664-4.618l0,0c-0.271-2.887,3.583-5.86,8.637-6.334l144.484-13.556
		C420.543,313.91,424.883,316.114,425.153,319.001L425.153,319.001z"/>
</g>
<g>
	<circle fill="#D3D3D3" cx="551.479" cy="510.433" r="3.823"/>
	<circle fill="#DDDDDD" cx="560.548" cy="509.582" r="3.823"/>
	<circle fill="#E2E2E2" cx="569.618" cy="508.731" r="3.823"/>
	<path fill="#EAEAEA" d="M523.007,532.307c0.205,2.192-1.404,4.136-3.596,4.342l-233.006,21.86c-2.191,0.206-4.135-1.405-4.34-3.597
		l-0.096-1.022c-0.206-2.191,1.404-4.136,3.595-4.341l233.006-21.861c2.191-0.205,4.135,1.405,4.34,3.597L523.007,532.307z"/>
	<path fill="#EAEAEA" d="M534.433,547.041c0.22,2.337-1.46,4.405-3.752,4.62l-242.6,22.761c-2.292,0.215-4.327-1.505-4.546-3.842
		l-0.046-0.498c-0.219-2.337,1.46-4.405,3.752-4.62l242.6-22.762c2.292-0.215,4.327,1.505,4.546,3.843L534.433,547.041z"/>
	<path fill="#EAEAEA" d="M450.303,571.004c0.22,2.338-0.332,4.3-1.847,4.442l-160.289,15.038c-1.514,0.142-2.919-1.637-3.139-3.975
		l-0.046-0.498c-0.219-2.337,0.831-4.346,2.344-4.488l160.289-15.038c1.515-0.143,2.422,1.684,2.642,4.021L450.303,571.004z"/>
	
		<linearGradient id="SVGID_4_" gradientUnits="userSpaceOnUse" x1="275.752" y1="521.4414" x2="439.252" y2="521.4414" gradientTransform="matrix(0.9956 -0.0934 0.0934 0.9956 -43.0117 42.0806)">
		<stop  offset="0.0013" style="stop-color:#E5C77D;stop-opacity:0.2"/>
		<stop  offset="0.21" style="stop-color:#EBCD58;stop-opacity:0.1446"/>
		<stop  offset="0.378" style="stop-color:#F1D338;stop-opacity:0.1"/>
		<stop  offset="0.8291" style="stop-color:#CCE0F4;stop-opacity:0.1"/>
	</linearGradient>
	<path fill="url(#SVGID_4_)" d="M443.026,520.212c0.271,2.888-3.582,5.86-8.636,6.334l-144.484,13.556
		c-5.054,0.475-9.394-1.729-9.665-4.617l0,0c-0.271-2.888,3.583-5.86,8.637-6.335l144.484-13.556
		C438.417,515.12,442.756,517.324,443.026,520.212L443.026,520.212z"/>
</g>
<g>
	<path fill="#4193D6" d="M270.111,280.522c0.347,0.11,0.646,0.309,0.895,0.596s0.411,0.591,0.485,0.913
		c0.074,0.322,0.041,0.622-0.102,0.902c-0.143,0.28-0.421,0.483-0.835,0.611c-0.796,0.217-1.552,0.35-2.267,0.399
		c-0.714,0.049-1.335,0.099-1.863,0.148c0.198,2.112,0.401,4.189,0.611,6.229c0.208,2.04,0.403,4.197,0.581,6.471
		c0.046,0.493-0.088,0.864-0.401,1.116c-0.314,0.251-0.671,0.378-1.07,0.38c-0.399,0.001-0.78-0.123-1.14-0.373
		c-0.361-0.25-0.564-0.622-0.611-1.115c-0.213-2.075-0.415-4.143-0.608-6.202c-0.193-2.06-0.387-4.128-0.582-6.205
		c-0.159,0.015-0.427,0.049-0.803,0.102c-0.377,0.053-0.79,0.097-1.24,0.13c-0.45,0.033-0.915,0.042-1.396,0.024
		c-0.481-0.017-0.906-0.097-1.274-0.239c-0.295-0.115-0.499-0.305-0.613-0.569c-0.114-0.264-0.144-0.541-0.091-0.83
		c0.053-0.289,0.173-0.566,0.361-0.833c0.188-0.266,0.437-0.458,0.745-0.576c1.471-0.226,2.897-0.391,4.282-0.495
		c1.384-0.104,2.789-0.222,4.214-0.355c0.423-0.04,0.845-0.083,1.266-0.132c0.422-0.047,0.853-0.093,1.293-0.134L270.111,280.522z"
		/>
	<path fill="#4193D6" d="M270.118,290.538c0.075-0.522,0.2-1.04,0.374-1.553c0.173-0.514,0.398-1.01,0.672-1.488
		c0.275-0.479,0.593-0.922,0.955-1.329c0.361-0.407,0.76-0.746,1.196-1.018c0.77-0.498,1.564-0.79,2.382-0.875
		c0.818-0.086,1.594,0.005,2.33,0.273c0.735,0.269,1.38,0.709,1.935,1.323c0.555,0.614,0.955,1.372,1.199,2.272
		c0.144,0.59,0.245,1.153,0.305,1.689c0.059,0.537,0.054,1.1-0.015,1.693c-0.098,0.844-0.377,1.7-0.837,2.569
		c-0.46,0.869-1.039,1.616-1.734,2.24c-0.696,0.625-1.48,1.067-2.353,1.326c-0.873,0.259-1.779,0.202-2.72-0.171
		c-0.423-0.156-0.81-0.346-1.159-0.57s-0.672-0.501-0.97-0.828c-0.335-0.359-0.607-0.742-0.813-1.148
		c-0.208-0.407-0.385-0.834-0.533-1.282c-0.169-0.48-0.26-0.974-0.272-1.479c-0.012-0.505,0.004-0.999,0.047-1.482L270.118,290.538z
		 M273.338,290.794c-0.026,0.287-0.044,0.568-0.054,0.844c-0.01,0.276,0.016,0.554,0.078,0.833c0.09,0.4,0.235,0.759,0.434,1.077
		c0.199,0.32,0.443,0.562,0.734,0.73c0.291,0.168,0.613,0.24,0.966,0.215c0.353-0.023,0.721-0.169,1.104-0.436
		c0.482-0.347,0.879-0.851,1.19-1.51c0.312-0.659,0.479-1.332,0.503-2.018s-0.106-1.322-0.392-1.908
		c-0.286-0.585-0.775-0.979-1.469-1.181c-0.44,0.042-0.837,0.163-1.191,0.365c-0.354,0.202-0.655,0.453-0.902,0.751
		c-0.247,0.298-0.455,0.642-0.623,1.03C273.549,289.975,273.423,290.378,273.338,290.794z"/>
	<path fill="#4193D6" d="M295.806,292.363c0.347,0.482,0.491,0.93,0.432,1.344c-0.059,0.414-0.229,0.737-0.508,0.967
		c-0.281,0.229-0.638,0.343-1.074,0.34c-0.435-0.003-0.875-0.189-1.317-0.556c-0.395,0.339-0.812,0.614-1.254,0.824
		c-0.442,0.21-0.913,0.4-1.411,0.572c-0.776,0.25-1.539,0.308-2.288,0.174c-0.75-0.133-1.428-0.402-2.034-0.808
		c-0.606-0.404-1.117-0.929-1.533-1.574c-0.416-0.645-0.678-1.361-0.788-2.15c-0.136-0.875-0.149-1.726-0.04-2.554
		c0.109-0.826,0.334-1.594,0.677-2.301c0.342-0.707,0.821-1.328,1.436-1.866c0.616-0.538,1.363-0.945,2.243-1.223
		c0.518-0.155,1.045-0.258,1.583-0.308c0.537-0.051,1.073-0.057,1.61-0.018c-0.054-0.385-0.109-0.829-0.165-1.33
		c-0.056-0.501-0.106-0.989-0.15-1.464c-0.045-0.476-0.067-0.903-0.067-1.286c0-0.381,0.019-0.654,0.057-0.817
		c0.093-0.329,0.26-0.588,0.5-0.78c0.239-0.191,0.5-0.304,0.78-0.339s0.564,0.009,0.852,0.133c0.287,0.125,0.524,0.329,0.71,0.612
		c0.043,0.085,0.096,0.165,0.156,0.239s0.094,0.156,0.103,0.243c0.234,2.305,0.452,4.583,0.655,6.838
		c0.202,2.253,0.412,4.534,0.628,6.839C295.676,292.215,295.746,292.297,295.806,292.363z M291.999,291.254
		c0.03-0.056,0.091-0.115,0.184-0.177c0.091-0.062,0.133-0.136,0.125-0.225c-0.069-0.74-0.138-1.465-0.205-2.179
		c-0.067-0.712-0.144-1.438-0.23-2.175c-0.431-0.048-0.875-0.06-1.335-0.035c-0.459,0.025-0.899,0.111-1.32,0.257
		c-0.422,0.146-0.802,0.36-1.139,0.639c-0.338,0.281-0.591,0.66-0.759,1.137c-0.075,0.344-0.14,0.689-0.197,1.031
		c-0.057,0.343-0.075,0.673-0.054,0.991s0.09,0.626,0.207,0.926c0.117,0.3,0.294,0.581,0.532,0.842
		c0.077,0.063,0.167,0.127,0.271,0.188c0.104,0.062,0.304,0.167,0.603,0.316c0.656-0.009,1.271-0.128,1.844-0.359
		C291.098,292.2,291.589,291.808,291.999,291.254z"/>
	<path fill="#4193D6" d="M297.814,287.939c0.075-0.522,0.2-1.04,0.374-1.553c0.173-0.514,0.398-1.01,0.672-1.488
		c0.275-0.479,0.593-0.922,0.955-1.329c0.361-0.407,0.76-0.746,1.196-1.018c0.77-0.498,1.564-0.79,2.382-0.875
		s1.594,0.005,2.33,0.274c0.735,0.268,1.38,0.709,1.935,1.323c0.555,0.614,0.955,1.372,1.199,2.272
		c0.144,0.59,0.245,1.153,0.304,1.689c0.06,0.537,0.054,1.101-0.014,1.693c-0.098,0.844-0.377,1.7-0.837,2.569
		c-0.46,0.869-1.039,1.616-1.734,2.24c-0.697,0.625-1.48,1.067-2.353,1.326c-0.873,0.259-1.779,0.202-2.72-0.171
		c-0.423-0.156-0.81-0.346-1.159-0.57c-0.35-0.224-0.673-0.5-0.97-0.828c-0.336-0.358-0.607-0.742-0.813-1.148
		c-0.208-0.407-0.385-0.834-0.533-1.282c-0.169-0.48-0.261-0.974-0.272-1.479c-0.012-0.505,0.004-0.999,0.047-1.482L297.814,287.939
		z M301.035,288.196c-0.027,0.287-0.044,0.568-0.054,0.844c-0.01,0.277,0.016,0.554,0.078,0.833c0.09,0.4,0.235,0.76,0.434,1.077
		c0.199,0.32,0.443,0.563,0.734,0.73c0.291,0.168,0.613,0.24,0.966,0.216c0.353-0.023,0.721-0.17,1.104-0.437
		c0.482-0.347,0.879-0.85,1.19-1.51c0.312-0.659,0.479-1.332,0.503-2.018c0.024-0.686-0.106-1.322-0.392-1.908
		c-0.286-0.585-0.775-0.979-1.469-1.181c-0.44,0.042-0.837,0.163-1.191,0.365c-0.354,0.202-0.655,0.453-0.902,0.751
		c-0.247,0.299-0.455,0.642-0.623,1.03C301.246,287.377,301.12,287.78,301.035,288.196z"/>
	<path fill="#4193D6" d="M324.682,290.132c0.21,0.159,0.394,0.367,0.552,0.628c0.157,0.261,0.253,0.526,0.288,0.799
		c0.034,0.271-0.003,0.533-0.113,0.783c-0.109,0.25-0.326,0.452-0.648,0.607c-0.256,0.112-0.545,0.157-0.867,0.134
		c-0.322-0.022-0.644-0.099-0.967-0.229c-0.323-0.129-0.614-0.292-0.872-0.491c-0.258-0.198-0.453-0.424-0.583-0.677
		c-0.044-0.085-0.08-0.184-0.108-0.297c-0.029-0.112-0.046-0.212-0.055-0.301l-1.375-14.654c-0.038-0.405,0.083-0.763,0.365-1.073
		c0.281-0.311,0.605-0.51,0.97-0.597c0.174-0.034,0.366-0.025,0.575,0.025c0.208,0.052,0.407,0.136,0.596,0.25
		c0.188,0.116,0.348,0.256,0.479,0.422c0.131,0.165,0.206,0.344,0.224,0.538c0.043,0.458,0.1,1.064,0.171,1.822
		c0.071,0.757,0.152,1.583,0.246,2.48c0.093,0.897,0.185,1.826,0.275,2.784c0.09,0.959,0.172,1.88,0.246,2.761
		c0.073,0.881,0.145,1.687,0.213,2.417c0.069,0.73,0.114,1.316,0.138,1.759L324.682,290.132z"/>
	<path fill="#4193D6" d="M326.182,275.742c0.009-0.658,0.188-1.158,0.539-1.502c0.349-0.344,0.736-0.531,1.159-0.562
		c0.423-0.03,0.83,0.096,1.221,0.379s0.622,0.713,0.694,1.293c0.091,0.595-0.02,1.072-0.333,1.429
		c-0.312,0.359-0.687,0.581-1.123,0.666c-0.436,0.085-0.86,0.005-1.274-0.241c-0.414-0.245-0.694-0.671-0.839-1.28L326.182,275.742z
		 M331.077,290.438c-0.002,0.355-0.096,0.679-0.282,0.972c-0.186,0.292-0.409,0.513-0.67,0.662
		c-0.262,0.148-0.554,0.202-0.877,0.162c-0.324-0.04-0.624-0.207-0.899-0.501c-0.157-0.163-0.277-0.352-0.359-0.565
		c-0.083-0.214-0.144-0.44-0.183-0.676c-0.041-0.236-0.067-0.473-0.08-0.712c-0.014-0.238-0.029-0.454-0.047-0.648
		c-0.116-1.037-0.217-2.066-0.303-3.088c-0.087-1.021-0.188-2.051-0.303-3.087c-0.04-0.423-0.106-0.848-0.199-1.273
		c-0.093-0.427-0.107-0.856-0.041-1.288c0.058-0.325,0.187-0.613,0.385-0.862c0.198-0.249,0.43-0.431,0.695-0.545
		c0.265-0.113,0.545-0.148,0.842-0.105c0.297,0.043,0.565,0.204,0.804,0.484c0.314,0.325,0.488,0.66,0.521,1.003
		s0.071,0.761,0.118,1.254c0.056,0.598,0.112,1.197,0.168,1.795c0.056,0.599,0.12,1.187,0.193,1.767
		c0.096,0.843,0.185,1.687,0.264,2.532c0.08,0.845,0.159,1.69,0.238,2.535L331.077,290.438z"/>
	<path fill="#4193D6" d="M333.277,289.193c-0.134-0.29-0.206-0.58-0.215-0.872c-0.01-0.292,0.04-0.563,0.15-0.813
		c0.109-0.25,0.281-0.452,0.516-0.607c0.234-0.156,0.528-0.232,0.884-0.229c0.195,0,0.376,0.036,0.542,0.108
		c0.167,0.074,0.322,0.166,0.465,0.276c0.144,0.111,0.288,0.231,0.434,0.359s0.293,0.238,0.444,0.331
		c0.32,0.201,0.653,0.338,0.998,0.413c0.344,0.074,0.704,0.12,1.078,0.138c0.247-0.023,0.438-0.103,0.577-0.24
		c0.138-0.137,0.226-0.296,0.262-0.478c0.037-0.18,0.032-0.371-0.013-0.57c-0.046-0.2-0.127-0.357-0.244-0.471
		c-0.328-0.271-0.711-0.43-1.15-0.478s-0.85-0.115-1.231-0.204c-0.544-0.126-1.085-0.303-1.621-0.528
		c-0.537-0.224-0.985-0.56-1.347-1.005c-0.38-0.461-0.627-0.966-0.741-1.515c-0.114-0.549-0.121-1.094-0.02-1.636
		c0.1-0.543,0.305-1.05,0.616-1.523c0.31-0.473,0.699-0.874,1.165-1.201c0.35-0.247,0.742-0.421,1.177-0.523
		c0.434-0.104,0.877-0.158,1.33-0.165c0.452-0.007,0.904,0.035,1.356,0.126c0.453,0.091,0.871,0.198,1.256,0.321
		c0.441,0.154,0.783,0.397,1.027,0.729c0.244,0.333,0.378,0.68,0.404,1.041c0.025,0.362-0.069,0.686-0.282,0.972
		c-0.213,0.286-0.548,0.451-1.005,0.494c-0.282,0.026-0.542,0.002-0.779-0.073c-0.238-0.076-0.485-0.146-0.739-0.211
		c-0.328-0.093-0.68-0.145-1.053-0.154c-0.374-0.008-0.671,0.042-0.892,0.15c-0.069,0.025-0.143,0.09-0.221,0.194
		c-0.08,0.105-0.135,0.23-0.165,0.375c-0.031,0.146-0.026,0.287,0.013,0.425s0.143,0.245,0.31,0.317
		c0.444,0.189,0.91,0.324,1.396,0.401c0.487,0.079,0.966,0.176,1.439,0.292c0.472,0.115,0.918,0.277,1.337,0.486
		c0.419,0.21,0.782,0.531,1.089,0.963c0.45,0.634,0.713,1.314,0.791,2.043c0.077,0.73-0.004,1.426-0.244,2.088
		c-0.24,0.662-0.629,1.244-1.167,1.748c-0.539,0.503-1.191,0.834-1.958,0.996c-0.541,0.104-1.081,0.124-1.619,0.059
		c-0.539-0.065-1.067-0.202-1.583-0.411c-0.517-0.209-1.003-0.47-1.458-0.782c-0.456-0.312-0.86-0.647-1.213-1.005L333.277,289.193z
		"/>
	<path fill="#4193D6" d="M344.922,281.015c-0.36-0.054-0.678-0.176-0.953-0.364c-0.275-0.187-0.475-0.417-0.598-0.689
		c-0.123-0.271-0.15-0.562-0.082-0.871c0.069-0.309,0.259-0.601,0.57-0.879c0.262-0.237,0.569-0.373,0.921-0.406
		c0.352-0.033,0.696-0.065,1.03-0.097c-0.011-0.123-0.046-0.39-0.103-0.803c-0.056-0.412-0.103-0.864-0.14-1.359
		c-0.038-0.493-0.051-0.967-0.04-1.42c0.01-0.454,0.078-0.775,0.202-0.965c0.306-0.526,0.719-0.8,1.242-0.823
		c0.521-0.022,0.972,0.188,1.351,0.633c0.078,0.082,0.154,0.181,0.228,0.298c0.073,0.118,0.114,0.229,0.124,0.334
		c0.077,0.632,0.141,1.265,0.192,1.899s0.105,1.269,0.165,1.902l2.086-0.196c0.317-0.03,0.599,0.051,0.848,0.24
		c0.249,0.189,0.435,0.421,0.558,0.693c0.124,0.273,0.177,0.561,0.162,0.865c-0.017,0.304-0.13,0.562-0.34,0.777
		c-0.374,0.373-0.828,0.593-1.363,0.661c-0.535,0.068-1.085,0.128-1.649,0.181c0.091,0.968,0.178,1.937,0.26,2.905
		c0.082,0.969,0.177,1.938,0.285,2.904c0.04,0.422,0.103,0.852,0.188,1.287c0.086,0.437,0.094,0.861,0.027,1.277
		c-0.059,0.325-0.185,0.59-0.378,0.794c-0.195,0.205-0.421,0.341-0.682,0.41c-0.259,0.068-0.534,0.077-0.823,0.023
		c-0.289-0.052-0.566-0.174-0.833-0.361c-0.134-0.112-0.248-0.313-0.337-0.607c-0.089-0.294-0.16-0.607-0.208-0.94
		c-0.055-0.385-0.094-0.799-0.117-1.241c-0.033-0.352-0.076-0.81-0.129-1.374c-0.053-0.563-0.112-1.148-0.177-1.754
		c-0.066-0.607-0.125-1.183-0.176-1.729s-0.092-0.977-0.122-1.294L344.922,281.015z"/>
</g>
<g>
	<circle fill="#D3D3D3" cx="541.605" cy="394.222" r="3.823"/>
	<circle fill="#DDDDDD" cx="550.675" cy="393.372" r="3.823"/>
	<circle fill="#E2E2E2" cx="559.745" cy="392.521" r="3.823"/>
	<path fill="#EAEAEA" d="M513.133,416.098c0.206,2.191-1.403,4.135-3.596,4.34l-233.006,21.861c-2.191,0.205-4.134-1.404-4.34-3.596
		l-0.096-1.024c-0.206-2.191,1.404-4.135,3.596-4.341l233.006-21.86c2.191-0.206,4.134,1.404,4.34,3.597L513.133,416.098z"/>
	<path fill="#EAEAEA" d="M529.537,430.363c0.22,2.337-1.497,4.409-3.834,4.629L278.29,458.204c-2.337,0.22-4.409-1.497-4.628-3.835
		l-0.047-0.497c-0.219-2.337,1.498-4.409,3.834-4.628l247.414-23.213c2.338-0.219,4.409,1.498,4.629,3.834L529.537,430.363z"/>
	<path fill="#EAEAEA" d="M531.032,446.293c0.219,2.338-1.497,4.41-3.835,4.629l-247.413,23.213
		c-2.337,0.219-4.409-1.498-4.628-3.835l-0.047-0.497c-0.219-2.338,1.498-4.41,3.834-4.629l247.414-23.213
		c2.337-0.219,4.408,1.498,4.628,3.834L531.032,446.293z"/>
	
		<linearGradient id="SVGID_5_" gradientUnits="userSpaceOnUse" x1="276.7773" y1="404.8179" x2="440.2764" y2="404.8179" gradientTransform="matrix(0.9956 -0.0934 0.0934 0.9956 -43.0117 42.0806)">
		<stop  offset="0" style="stop-color:#273FFF;stop-opacity:0.2"/>
		<stop  offset="0.1227" style="stop-color:#244EFF;stop-opacity:0.1896"/>
		<stop  offset="0.5127" style="stop-color:#1885FF;stop-opacity:0.1171"/>
		<stop  offset="0.6049" style="stop-color:#1593FF;stop-opacity:0.1"/>
		<stop  offset="0.8291" style="stop-color:#CCE0F4;stop-opacity:0.1"/>
	</linearGradient>
	<path fill="url(#SVGID_5_)" d="M433.153,404.001c0.271,2.887-3.583,5.86-8.636,6.334l-144.485,13.556
		c-5.053,0.474-9.394-1.73-9.664-4.618l0,0c-0.271-2.887,3.583-5.859,8.637-6.334l144.485-13.556
		C428.543,398.91,432.883,401.114,433.153,404.001L433.153,404.001z"/>
</g>
<g>
</g>
<g>
</g>
<g>
</g>
<g>
</g>
<g>
</g>
<g>
</g>
<g>
</g>
<g>
</g>
<g>
</g>
<g>
</g>
<g>
</g>
<g>
</g>
<g>
</g>
<g>
</g>
<g>
</g>
</svg>
